# xmcd CD database file
#
# Track frame offsets:
#	150
#	12878
#	25456
#	37290
#	50965
#	64525
#	76947
#	89593
#	103105
#	117125
#	130799
#	173376
#	230780
#	257048
#	271900
#	284327
#	298170
#
# Disc length: 4150 seconds
#
# Revision: 0
# Processed by: cddbd v1.5.1PL2 Copyright (c) Steve Scherf et al.
# Submitted via: CDex 1.51
#
DISCID=f8103411
DTITLE=Erroll Garner - 1999_The quintassence, (new York-hollywood 1944-1947)_CD2
DYEAR=1999
DGENRE=Jazz
TTITLE0=Stardust 
TTITLE1=Somebody Loves Me 
TTITLE2=Indiana (Back Home Again In)
TTITLE3=Wrap Your Troubles In Dreams 
TTITLE4=Frantonality 
TTITLE5=Bird's Nest 
TTITLE6=Cool Blues 
TTITLE7=Pastel 
TTITLE8=Trio 
TTITLE9=Erroll's Bounce 
TTITLE10=Blue Lou, Part One and Two 
TTITLE11=One O'clock Jump (Version 2)
TTITLE12=Lover 
TTITLE13=Play, Piano, Play 
TTITLE14=Blues Garni 
TTITLE15=Loose Nut 
TTITLE16=Frankie And Johnny Fantasy 
EXTD=YEAR: 1999
EXTT0=
EXTT1=
EXTT2=
EXTT3=
EXTT4=
EXTT5=
EXTT6=
EXTT7=
EXTT8=
EXTT9=
EXTT10=
EXTT11=
EXTT12=
EXTT13=
EXTT14=
EXTT15=
EXTT16=
PLAYORDER=
